SplineFontDB: 3.2
FontName: Comprexa
FullName: Comprexa
FamilyName: Comprexa
Weight: Bold
Copyright: Copyleft 2022, qopha
UComments: "2022-12-31: Created with FontForge (http://fontforge.org)"
FontLog: "Found type walking about, it was old and unused. I liked some of the letterforms. This project is the realisation of that attraction. "
Version: 001.000
ItalicAngle: 0
UnderlinePosition: -100
UnderlineWidth: 50
Ascent: 800
Descent: 200
InvalidEm: 0
LayerCount: 2
Layer: 0 0 "Back" 1
Layer: 1 0 "Fore" 0
XUID: [1021 385 480977976 15246491]
FSType: 0
OS2Version: 0
OS2_WeightWidthSlopeOnly: 0
OS2_UseTypoMetrics: 1
CreationTime: 1672500031
ModificationTime: 1675271440
PfmFamily: 17
TTFWeight: 400
TTFWidth: 5
LineGap: 90
VLineGap: 0
OS2TypoAscent: 0
OS2TypoAOffset: 1
OS2TypoDescent: 0
OS2TypoDOffset: 1
OS2TypoLinegap: 90
OS2WinAscent: 0
OS2WinAOffset: 1
OS2WinDescent: 0
OS2WinDOffset: 1
HheadAscent: 0
HheadAOffset: 1
HheadDescent: 0
HheadDOffset: 1
OS2Vendor: 'PfEd'
MarkAttachClasses: 1
DEI: 91125
LangName: 1033
Encoding: AdobeStandard
UnicodeInterp: none
NameList: AGL For New Fonts
DisplaySize: -128
AntiAlias: 1
FitToEm: 0
WinInfo: 70 14 6
BeginPrivate: 0
EndPrivate
Grid
-1000 700.25 m 0
 2000 700.25 l 1024
-1002 600 m 0
 2000 600.666625977 l 1024
EndSplineSet
TeXData: 1 0 0 346030 173015 115343 0 1048576 115343 783286 444596 497025 792723 393216 433062 380633 303038 157286 324010 404750 52429 2506097 1059062 262144
BeginChars: 256 47

StartChar: A
Encoding: 65 65 0
Width: 450
Flags: HMW
HStem: 0 21G<19 170.333 283.667 435> 150 100<186 268> 600 100G<110.5 343.5> 978 60
LayerCount: 2
Fore
SplineSet
125 700 m 2
 329 700 l 2
 358 700 382 679 386 651 c 2
 435 0 l 1
 285 0 l 1
 275 150 l 1
 179 150 l 1
 169 0 l 1
 19 0 l 1
 68 651 l 2
 72 679 96 700 125 700 c 2
217 600 m 2
 213 600 210 597 210 594 c 2
 186 250 l 1
 268 250 l 1
 244 594 l 2
 244 597 241 600 237 600 c 2
 217 600 l 2
EndSplineSet
EndChar

StartChar: B
Encoding: 66 66 1
Width: 440
Flags: HW
LayerCount: 2
Fore
SplineSet
23.5 700 m 1
 173.5 700 l 1
 316.5 700 l 2
 371.728515625 700 416.5 655.228515625 416.5 600 c 2
 416.5 508.1640625 l 2
 416.5 448.426757812 368.073242188 400 308.3359375 400 c 1
 316.5 400 l 2
 371.728515625 400 416.5 355.228515625 416.5 300 c 2
 416.5 100 l 2
 416.5 44.771484375 371.728515625 0 316.5 0 c 2
 23.5 0 l 1
 23.5 700 l 1
173.5 600 m 1
 173.5 400 l 1
 212.607421875 400 l 2
 242.37109375 400 266.5 424.12890625 266.5 453.892578125 c 2
 266.5 562.081054688 l 2
 266.5 583.0234375 249.5234375 600 228.581054688 600 c 2
 228.3515625 600 l 1
 173.5 600 l 1
173.5 300 m 1
 173.5 100 l 1
 228.581054688 100 l 2
 249.5234375 100 266.5 116.9765625 266.5 137.918945312 c 2
 266.5 262.279296875 l 2
 266.5 283.112304688 249.612304688 300 228.779296875 300 c 2
 173.5 300 l 1
EndSplineSet
EndChar

StartChar: C
Encoding: 67 67 2
Width: 440
Flags: HW
LayerCount: 2
Fore
SplineSet
20 600 m 2
 20 655.228515625 64.771484375 700 120 700 c 2
 320 700 l 2
 375.228515625 700 420 655.228515625 420 600 c 2
 420 450 l 1
 270 450 l 1
 270 600 l 1
 170 600 l 1
 170 100 l 1
 270 100 l 1
 270 250 l 1
 420 250 l 1
 420 100 l 2
 420 44.771484375 375.228515625 0 320 0 c 2
 120 0 l 2
 64.771484375 0 20 44.771484375 20 100 c 2
 20 600 l 2
EndSplineSet
EndChar

StartChar: D
Encoding: 68 68 3
Width: 440
Flags: HW
LayerCount: 2
Fore
SplineSet
20 700 m 1
 170 700 l 1
 270 700 l 1
 320 700 l 2
 375.19140625 700 420 655.19140625 420 600 c 2
 420 100 l 2
 420 44.80859375 375.19140625 0 320 0 c 2
 309.755859375 0 l 1
 270 0 l 1
 170 0 l 1
 20 0 l 1
 20 700 l 1
170 600 m 1
 170 100 l 1
 270 100 l 1
 270 600 l 1
 170 600 l 1
EndSplineSet
EndChar

StartChar: E
Encoding: 69 69 4
Width: 340
Flags: HW
LayerCount: 2
Fore
SplineSet
20 700 m 5
 20 0 l 5
 320 0 l 5
 320 100 l 5
 170 100 l 5
 170 300.2265625 l 5
 320 300.2265625 l 5
 320 400 l 5
 170 400 l 5
 170 600.2265625 l 5
 320 600.2265625 l 5
 320 700 l 5
 20 700 l 5
EndSplineSet
EndChar

StartChar: F
Encoding: 70 70 6
Width: 340
Flags: HW
LayerCount: 2
Fore
SplineSet
20 700 m 1
 195 700 l 1
 320 700 l 1
 320 575 l 1
 170 575 l 1
 170 363 l 1
 320 363 l 1
 320 238 l 1
 170 238 l 1
 170 0 l 1
 20 0 l 1
 20 700 l 1
EndSplineSet
EndChar

StartChar: G
Encoding: 71 71 7
Width: 440
Flags: HW
LayerCount: 2
Fore
SplineSet
19.703125 646.498046875 m 2
 19.703125 660.194335938 24.93359375 673.900390625 35.373046875 684.33984375 c 0
 45.8134765625 694.780273438 59.5087890625 700 73.205078125 700 c 2
 73.205078125 700 366.211914062 699.989257812 366.201171875 700 c 1
 379.897460938 700 393.603515625 694.76953125 404.04296875 684.330078125 c 0
 414.483398438 673.889648438 419.703125 660.194335938 419.703125 646.498046875 c 2
 419.703125 400 l 1
 269.703125 400 l 1
 269.703125 400 269.701171875 589.362304688 269.703125 589.360351562 c 1
 269.703125 592.083984375 268.663085938 594.809570312 266.586914062 596.885742188 c 0
 264.510742188 598.961914062 261.787109375 600 259.063476562 600 c 2
 259.063476562 600 180.340820312 599.998046875 180.342773438 600 c 1
 177.619140625 600 174.893554688 598.959960938 172.817382812 596.883789062 c 0
 170.741210938 594.807617188 169.703125 592.083984375 169.703125 589.360351562 c 2
 169.703125 589.360351562 169.705078125 110.637695312 169.703125 110.639648438 c 1
 169.703125 107.916015625 170.743164062 105.190429688 172.819335938 103.114257812 c 0
 174.895507812 101.038085938 177.619140625 100 180.342773438 100 c 2
 180.342773438 100 259.065429688 100.001953125 259.063476562 100 c 1
 261.787109375 100 264.512695312 101.040039062 266.588867188 103.116210938 c 0
 268.665039062 105.192382812 269.703125 107.916015625 269.703125 110.639648438 c 2
 269.703125 189.10546875 l 1
 269.703125 250 l 1
 229.703125 250 l 1
 229.703125 350 l 1
 269.703125 350 l 1
 419.703125 350 l 1
 419.703125 200 l 1
 419.703125 0 l 1
 363.45703125 0 l 1
 335.33203125 100 l 1
 335.33203125 44.771484375 290.560546875 0 235.33203125 0 c 2
 148 0 l 2
 77.1435546875 0 19.703125 57.4404296875 19.703125 128.296875 c 2
 19.703125 646.498046875 l 2
EndSplineSet
EndChar

StartChar: N
Encoding: 78 78 8
Width: 600
Flags: W
HStem: 0 21G<64 214 352 512.5> 0 21G<64 214 352 512.5> 680 20G<99.5 256 398 548> 680 20G<99.5 256 398 548>
VStem: 64 150<0 595.14> 398 150<105.859 700>
LayerCount: 2
Fore
SplineSet
64 651 m 2xac
 64 678 86 700 113 700 c 2
 242 700 l 2
 270 700 295 679 299 651 c 2
 381 106 l 2
 382 103 385 100 389 100 c 2
 392 100 l 2
 395 100 398 103 398 106 c 2
 398 700 l 1
 548 700 l 1
 548 49 l 2
 548 22 526 0 499 0 c 2
 366 0 l 2
 338 0 314 21 310 49 c 2
 232 595 l 2
 231 598 228 600 225 600 c 2
 219 600 l 2
 216 600 214 598 214 595 c 2
 214 0 l 1
 64 0 l 1
 64 651 l 2xac
EndSplineSet
EndChar

StartChar: H
Encoding: 72 72 9
Width: 445
Flags: HW
LayerCount: 2
Fore
SplineSet
20 692.08984375 m 5
 170 692.08984375 l 5
 170 425 l 5
 270 425 l 5
 270 692.08984375 l 5
 420 692.08984375 l 5
 420 0 l 5
 270 0 l 5
 270 300 l 5
 170 300 l 5
 170 0 l 5
 20 0 l 5
 20 692.08984375 l 5
EndSplineSet
EndChar

StartChar: R
Encoding: 82 82 10
Width: 440
Flags: W
HStem: 0 21G<20 170 270 420> 285 65<170 246.518> 600 100<170 269.802>
VStem: 20 150<0 285 350 600> 270 150<0 260.773 373.691 599.802>
LayerCount: 2
Fore
SplineSet
20 700 m 1
 63 700 345 700 345 700 c 1
 386 700 420 666 420 625 c 2
 420 427 l 1
 420 384 386 350 343 350 c 2
 320 350 l 1
 334 345 l 0
 384 327 420 279 420 223 c 2
 420 146 l 1
 420 0 l 1
 270 0 l 1
 270 82 l 1
 270 208 l 1
 270 248 240 281 201 285 c 2
 170 285 l 1
 170 0 l 1
 20 0 l 1
 20 700 l 1
170 600 m 1
 170 350 l 1
 212 350 l 1
 244 350 270 376 270 408 c 2
 270 575 l 1
 270 589 259 600 245 600 c 2
 170 600 l 1
EndSplineSet
EndChar

StartChar: O
Encoding: 79 79 11
Width: 440
Flags: HW
HStem: 0 100<170 270> 600 100<170 270>
VStem: 20 150<100 600> 270 150<100 599.638>
LayerCount: 2
Fore
SplineSet
20 600 m 2
 20 625.598632812 29.7763671875 651.216796875 49.2890625 670.73046875 c 0
 68.802734375 690.243164062 94.4013671875 700 120 700 c 2
 120 700 320.01953125 699.98046875 320 700 c 1
 345.598632812 700 371.216796875 690.223632812 390.73046875 670.7109375 c 0
 410.243164062 651.197265625 420 625.598632812 420 600 c 2
 420 600 419.98046875 99.98046875 420 100 c 1
 420 74.4013671875 410.223632812 48.783203125 390.7109375 29.26953125 c 0
 371.197265625 9.7568359375 345.598632812 0 320 0 c 2
 320 0 119.98046875 0.01953125 120 0 c 1
 94.4013671875 0 68.783203125 9.7763671875 49.26953125 29.2890625 c 0
 29.7568359375 48.802734375 20 74.4013671875 20 100 c 2
 20 600 l 2
170 600 m 1
 170 100 l 1
 270 100 l 1
 270 600 l 1
 170 600 l 1
EndSplineSet
EndChar

StartChar: I
Encoding: 73 73 12
Width: 192
Flags: HW
HStem: 0 21G<20.0505 171.999> 680 20G<20.0505 171.999>
VStem: 20.0505 151.949<0 700>
LayerCount: 2
Fore
SplineSet
20.05078125 700 m 1
 172 700 l 1
 172 0 l 1
 20.05078125 0 l 1
 20.05078125 700 l 1
EndSplineSet
EndChar

StartChar: L
Encoding: 76 76 13
Width: 365
Flags: HW
LayerCount: 2
Fore
SplineSet
20 0 m 1
 20 100 l 1
 20 700 l 1
 170 700 l 1
 170 100 l 1
 345 100 l 1
 345 0 l 1
 20 0 l 1
EndSplineSet
EndChar

StartChar: J
Encoding: 74 74 14
Width: 300
Flags: HW
LayerCount: 2
Fore
SplineSet
111 700.25 m 1
 262.951171875 700.25 l 1
 262.951171875 700.25 262 152.94921875 262.000976562 152.94921875 c 1
 262.000976562 69.0859375 193.913085938 1 110.049804688 1 c 2
 10.0498046875 1 l 1
 10.0498046875 101 l 1
 110.049804688 101 l 1
 111 700.25 l 1
EndSplineSet
EndChar

StartChar: K
Encoding: 75 75 15
Width: 450
Flags: HW
HStem: 0 21G<25 175 273.022 425> 680 20G<25 175 273.023 425>
VStem: 25 150<0 263.363 328.48 700>
LayerCount: 2
Fore
SplineSet
25 700 m 1
 175 700 l 1
 175 328.48046875 l 1
 181 349.998046875 l 1
 181 350 l 1
 206.494140625 441.419921875 l 1
 278.599609375 700 l 1
 425 700 l 1
 307.880859375 350 l 1
 425 0 l 1
 278.599609375 0 l 1
 200.51953125 280.001953125 l 1
 175 263.36328125 l 1
 175 0 l 1
 25 0 l 1
 25 700 l 1
EndSplineSet
EndChar

StartChar: M
Encoding: 77 77 16
Width: 800
Flags: HW
HStem: 0 21G<25 175 288.5 512.5 625 775> 0 21G<25 175 288.5 512.5 625 775> 600 100<175 194.734 605.266 625>
VStem: 25 150<0 595> 625 150<0 595>
LayerCount: 2
Fore
SplineSet
25 651 m 2xb8
 25 663 30 676 39 686 c 0
 49 695 62 700 74 700 c 2
 286 700 l 1
 299 700 312 695 322 686 c 0
 332 676 338 664 339 651 c 2
 386 106 l 1
 386 105 387 103 388 102 c 0
 389 101 391 100 393 100 c 2
 407 100 l 1
 409 100 411 101 412 102 c 0
 413 103 414 105 414 106 c 2
 461 650 l 1
 462 663 468 676 478 686 c 0
 489 695 502 700 515 700 c 2
 726 700 l 1
 738 700 751 695 761 686 c 0
 770 676 775 663 775 651 c 2
 775 0 l 1
 625 0 l 1
 625 595 l 1
 623 598 l 0
 620 600 l 2
 612 600 l 1
 608 598 l 0
 606 595 l 2
 559 49 l 1
 558 36 552 23 542 14 c 0
 532 5 519 0 506 0 c 2
 295 0 l 1
 282 0 269 5 258 14 c 0
 248 24 242 37 241 50 c 2
 194 595 l 1
 192 598 l 0
 188 600 l 2
 180 600 l 1
 177 598 l 0
 175 595 l 2
 175 0 l 1
 25 0 l 1
 25 651 l 2xb8
EndSplineSet
EndChar

StartChar: P
Encoding: 80 80 17
Width: 440
Flags: HW
HStem: 0 21G<20 170> 250 100<170 270> 600 100<170 270>
VStem: 20 150<0 250 350 600> 270 150<350 600>
LayerCount: 2
Fore
SplineSet
20 700 m 1
 320 700 l 2
 375 700 420 655 420 600 c 2
 420 350 l 2
 420 295 375 250 320 250 c 2
 170 250 l 1
 170 0 l 1
 20 0 l 1
 20 700 l 1
170 600 m 1
 170 350 l 1
 270 350 l 1
 270 600 l 1
 170 600 l 1
EndSplineSet
EndChar

StartChar: S
Encoding: 83 83 18
Width: 440
Flags: HW
HStem: 0 191<57.723 170> 0 100<173.094 266.906> 517 183<270 382.277> 600 100<173.094 266.906>
VStem: 20 150<103.094 191 481.538 596.906> 270 150<103.094 214.688 517 596.906>
LayerCount: 2
Fore
SplineSet
20 600 m 6
 20 625.598632812 29.7763671875 651.216796875 49.2890625 670.73046875 c 4
 68.802734375 690.243164062 94.4013671875 700 120 700 c 6
 120 700 320.01953125 699.98046875 320 700 c 5
 345.598632812 700 371.216796875 690.223632812 390.73046875 670.7109375 c 4
 410.243164062 651.197265625 420 625.598632812 420 600 c 6
 420 517.056640625 l 5
 270 517.056640625 l 5
 270 517.056640625 269.998046875 589.83203125 270 589.830078125 c 5
 270 592.432617188 269.005859375 595.0390625 267.021484375 597.0234375 c 4
 265.037109375 599.0078125 262.43359375 600 259.830078125 600 c 6
 259.830078125 600 180.16796875 599.998046875 180.169921875 600 c 5
 177.567382812 600 174.9609375 599.005859375 172.9765625 597.021484375 c 4
 170.9921875 595.037109375 170 592.43359375 170 589.830078125 c 6
 170 589.830078125 170.018554688 459.139648438 170 459.169921875 c 5
 170 456.212890625 170.806640625 453.189453125 172.4609375 450.483398438 c 4
 174.115234375 447.778320312 176.420898438 445.712890625 179.052734375 444.365234375 c 6
 179.052734375 444.365234375 353.377929688 354.95703125 353.241210938 355.180664062 c 5
 372.65234375 345.2421875 389.791015625 329.78515625 401.990234375 309.833984375 c 4
 414.188476562 289.8828125 420 267.807617188 420 246 c 6
 420 246 419.98046875 99.98046875 420 100 c 5
 420 74.4013671875 410.223632812 48.783203125 390.7109375 29.26953125 c 4
 371.197265625 9.7568359375 345.598632812 0 320 0 c 6
 320 0 119.98046875 0.01953125 120 0 c 5
 94.4013671875 0 68.783203125 9.7763671875 49.26953125 29.2890625 c 4
 29.7568359375 48.802734375 20 74.4013671875 20 100 c 6
 20 190.943359375 l 5
 170 190.943359375 l 5
 170 100 l 5
 270 100 l 5
 270 100 269.981445312 244.563476562 270 244.533203125 c 5
 270 247.490234375 269.193359375 250.513671875 267.5390625 253.21875 c 4
 265.884765625 255.924804688 263.579101562 257.990234375 260.947265625 259.337890625 c 6
 260.947265625 259.337890625 67.3427734375 358.572265625 67.4404296875 358.4140625 c 5
 53.646484375 365.4765625 41.4677734375 376.459960938 32.798828125 390.637695312 c 4
 24.1298828125 404.815429688 20 420.502929688 20 436 c 6
 20 600 l 6
EndSplineSet
EndChar

StartChar: Q
Encoding: 81 81 19
Width: 440
Flags: W
HStem: -123 100<294.256 420> 600 100<170 270>
VStem: 20 150<100 600> 270 150<100 600>
LayerCount: 2
Fore
SplineSet
120 700 m 2
 320 700 l 2
 375 700 420 655 420 600 c 2
 420 100 l 2
 420 45 375 0 320 0 c 2
 294 0 l 1
 294 -13 305 -23 317 -23 c 2
 420 -23 l 1
 420 -123 l 1
 309 -123 l 2
 245 -123 194 -72 194 -8 c 2
 194 0 l 1
 120 0 l 2
 65 0 20 45 20 100 c 2
 20 600 l 2
 20 655 65 700 120 700 c 2
170 600 m 1
 170 100 l 1
 270 100 l 1
 270 600 l 1
 170 600 l 1
EndSplineSet
EndChar

StartChar: T
Encoding: 84 84 20
Width: 390
Flags: HW
LayerCount: 2
Fore
SplineSet
20 700 m 1
 120 700 l 1
 270 700 l 1
 370 700 l 1
 370 600 l 1
 270 600 l 1
 270 0 l 1
 120 0 l 1
 120 600 l 1
 20 600 l 1
 20 700 l 1
EndSplineSet
EndChar

StartChar: U
Encoding: 85 85 21
Width: 440
Flags: W
HStem: 0 100<173.094 266.906> 680 20G<20 170 270 420> 680 20G<20 170 270 420>
VStem: 20 150<103.094 700> 270 150<103.094 700>
LayerCount: 2
Fore
SplineSet
420 700 m 1xd8
 420 100 l 2
 420 74 410 49 391 29 c 0
 371 10 346 0 320 0 c 1
 120 0 l 2
 94 0 69 10 49 29 c 0
 30 49 20 74 20 100 c 1
 20 700 l 1
 170 700 l 1
 170 111 l 2
 170 108 171 105 173 103 c 0
 175 101 178 100 181 100 c 1
 259 100 l 2
 262 100 265 101 267 103 c 0
 269 105 270 108 270 111 c 1
 270 700 l 1
 420 700 l 1xd8
EndSplineSet
EndChar

StartChar: V
Encoding: 86 86 22
Width: 500
Flags: HW
HStem: 0 21G<150.5 349.5> 680 20G<7 159.862 340.138 493>
LayerCount: 2
Fore
SplineSet
493 700 m 1
 400 49 l 2
 398 36 392 24 381 14 c 0
 370 5 356 0 343 0 c 1
 157 0 l 2
 144 0 130 5 119 14 c 0
 108 24 102 36 100 49 c 1
 7 700 l 1
 157 700 l 1
 242 106 l 2
 242 104 243 103 244 102 c 0
 246 101 247 100 249 100 c 1
 251 100 l 2
 253 100 254 101 256 102 c 0
 257 103 258 105 258 106 c 1
 343 700 l 1
 493 700 l 1
EndSplineSet
EndChar

StartChar: s
Encoding: 115 115 23
Width: 440
Flags: W
HStem: 0 191<57.723 170> 0 100<173.094 266.906> 517 183<270 382.277> 600 100<173.094 266.906>
VStem: 20 150<103.094 191 481.538 596.906> 270 150<103.094 214.688 517 596.906>
LayerCount: 2
Fore
SplineSet
20 600 m 6
 20 625.598632812 29.7763671875 651.216796875 49.2890625 670.73046875 c 4
 68.802734375 690.243164062 94.4013671875 700 120 700 c 6
 120 700 320.01953125 699.98046875 320 700 c 5
 345.598632812 700 371.216796875 690.223632812 390.73046875 670.7109375 c 4
 410.243164062 651.197265625 420 625.598632812 420 600 c 6
 420 517.056640625 l 5
 270 517.056640625 l 5
 270 517.056640625 269.998046875 589.83203125 270 589.830078125 c 5
 270 592.432617188 269.005859375 595.0390625 267.021484375 597.0234375 c 4
 265.037109375 599.0078125 262.43359375 600 259.830078125 600 c 6
 259.830078125 600 180.16796875 599.998046875 180.169921875 600 c 5
 177.567382812 600 174.9609375 599.005859375 172.9765625 597.021484375 c 4
 170.9921875 595.037109375 170 592.43359375 170 589.830078125 c 6
 170 589.830078125 170.018554688 459.139648438 170 459.169921875 c 5
 170 456.212890625 170.806640625 453.189453125 172.4609375 450.483398438 c 4
 174.115234375 447.778320312 176.420898438 445.712890625 179.052734375 444.365234375 c 6
 179.052734375 444.365234375 353.377929688 354.95703125 353.241210938 355.180664062 c 5
 372.65234375 345.2421875 389.791015625 329.78515625 401.990234375 309.833984375 c 4
 414.188476562 289.8828125 420 267.807617188 420 246 c 6
 420 246 419.98046875 99.98046875 420 100 c 5
 420 74.4013671875 410.223632812 48.783203125 390.7109375 29.26953125 c 4
 371.197265625 9.7568359375 345.598632812 0 320 0 c 6
 320 0 119.98046875 0.01953125 120 0 c 5
 94.4013671875 0 68.783203125 9.7763671875 49.26953125 29.2890625 c 4
 29.7568359375 48.802734375 20 74.4013671875 20 100 c 6
 20 190.943359375 l 5
 170 190.943359375 l 5
 170 100 l 5
 270 100 l 5
 270 100 269.981445312 244.563476562 270 244.533203125 c 5
 270 247.490234375 269.193359375 250.513671875 267.5390625 253.21875 c 4
 265.884765625 255.924804688 263.579101562 257.990234375 260.947265625 259.337890625 c 6
 260.947265625 259.337890625 67.3427734375 358.572265625 67.4404296875 358.4140625 c 5
 53.646484375 365.4765625 41.4677734375 376.459960938 32.798828125 390.637695312 c 4
 24.1298828125 404.815429688 20 420.502929688 20 436 c 6
 20 600 l 6
EndSplineSet
EndChar

StartChar: a
Encoding: 97 97 24
Width: 450
Flags: HW
HStem: 0 21G<19 170.333 283.667 435> 150 100<186 268> 600 100G<110.5 343.5> 978 60
LayerCount: 2
Fore
SplineSet
125 700 m 2
 329 700 l 2
 358 700 382 679 386 651 c 2
 435 0 l 1
 285 0 l 1
 275 150 l 1
 179 150 l 1
 169 0 l 1
 19 0 l 1
 68 651 l 2
 72 679 96 700 125 700 c 2
217 600 m 2
 213 600 210 597 210 594 c 2
 186 250 l 1
 268 250 l 1
 244 594 l 2
 244 597 241 600 237 600 c 2
 217 600 l 2
EndSplineSet
EndChar

StartChar: b
Encoding: 98 98 25
Width: 453
Flags: HW
LayerCount: 2
Fore
SplineSet
30 700 m 1
 180 700 l 1
 323 700 l 2
 378.228515625 700 423 655.228515625 423 600 c 2
 423 508.1640625 l 2
 423 448.426757812 374.573242188 400 314.8359375 400 c 1
 323 400 l 2
 378.228515625 400 423 355.228515625 423 300 c 2
 423 100 l 2
 423 44.771484375 378.228515625 0 323 0 c 2
 30 0 l 1
 30 700 l 1
180 600 m 1
 180 400 l 1
 219.107421875 400 l 2
 248.87109375 400 273 424.12890625 273 453.892578125 c 2
 273 562.081054688 l 2
 273 583.0234375 256.0234375 600 235.081054688 600 c 2
 234.8515625 600 l 1
 180 600 l 1
180 300 m 1
 180 100 l 1
 235.081054688 100 l 2
 256.0234375 100 273 116.9765625 273 137.918945312 c 2
 273 262.279296875 l 2
 273 283.112304688 256.112304688 300 235.279296875 300 c 2
 180 300 l 1
EndSplineSet
EndChar

StartChar: c
Encoding: 99 99 26
Width: 440
Flags: HW
HStem: 0 100<180.33 259.67> 600 100<180.33 259.67>
VStem: 20 150<110.33 589.67> 270 150<110.33 250 450 589.67>
LayerCount: 2
Fore
SplineSet
120 0 m 2
 94 0 69 10 49 29 c 0
 30 49 20 74 20 100 c 2
 20 600 l 1
 20 626 30 651 49 671 c 0
 69 690 94 700 120 700 c 2
 320 700 l 1
 346 700 371 690 391 671 c 0
 410 651 420 626 420 600 c 2
 420 450 l 1
 270 450 l 1
 270 565 l 1
 270 574 267 583 260 590 c 0
 253 597 244 600 235 600 c 2
 205 600 l 1
 196 600 187 597 180 590 c 0
 173 583 170 574 170 565 c 2
 170 135 l 1
 170 126 171 116 178 109 c 0
 185 102 190 100 205 100 c 2
 235 100 l 1
 250 100 256 100 263 107 c 4
 270 114 270 122 270 135 c 2
 270 250 l 1
 420 250 l 1
 420 100 l 1
 420 74 410 49 391 29 c 0
 371 10 346 0 320 0 c 2
 120 0 l 2
EndSplineSet
EndChar

StartChar: d
Encoding: 100 100 27
Width: 440
Flags: HW
LayerCount: 2
Fore
SplineSet
20 700 m 1
 20 700 320.01953125 699.98046875 320 700 c 1
 345.598632812 700 371.216796875 690.223632812 390.73046875 670.7109375 c 0
 410.243164062 651.197265625 420 625.598632812 420 600 c 2
 420 600 419.98046875 99.98046875 420 100 c 1
 420 74.4013671875 410.223632812 48.783203125 390.7109375 29.26953125 c 0
 371.197265625 9.7568359375 345.598632812 0 320 0 c 2
 20 0 l 1
 20 700 l 1
180.639648438 600 m 2
 177.916015625 600 175.190429688 598.959960938 173.114257812 596.883789062 c 0
 171.038085938 594.807617188 170 592.083984375 170 589.360351562 c 2
 170 589.360351562 170.001953125 110.63671875 170 110.639648438 c 1
 170 107.916015625 171.040039062 105.190429688 173.116210938 103.114257812 c 0
 175.192382812 101.038085938 177.916015625 100 180.639648438 100 c 2
 180.639648438 100 234.88671875 100.006835938 234.879882812 100 c 1
 243.870117188 100 252.8671875 103.43359375 259.720703125 110.286132812 c 0
 266.573242188 117.139648438 270 126.129882812 270 135.120117188 c 2
 270 135.120117188 269.993164062 564.88671875 270 564.879882812 c 1
 270 573.870117188 266.56640625 582.8671875 259.713867188 589.720703125 c 0
 252.860351562 596.573242188 243.870117188 600 234.879882812 600 c 2
 180.639648438 600 l 2
EndSplineSet
EndChar

StartChar: e
Encoding: 101 101 28
Width: 340
Flags: HW
LayerCount: 2
Fore
SplineSet
20 700 m 5
 20 0 l 5
 320 0 l 5
 320 100 l 5
 170 100 l 5
 170 300.2265625 l 5
 320 300.2265625 l 5
 320 400 l 5
 170 400 l 5
 170 600.2265625 l 5
 320 600.2265625 l 5
 320 700 l 5
 20 700 l 5
EndSplineSet
EndChar

StartChar: f
Encoding: 102 102 29
Width: 340
Flags: HW
LayerCount: 2
Fore
SplineSet
20 700 m 1
 195 700 l 1
 320 700 l 1
 320 575 l 1
 170 575 l 1
 170 363 l 1
 320 363 l 1
 320 238 l 1
 170 238 l 1
 170 0 l 1
 20 0 l 1
 20 700 l 1
EndSplineSet
EndChar

StartChar: g
Encoding: 103 103 30
Width: 440
Flags: HW
LayerCount: 2
Fore
SplineSet
120 700 m 2
 317.16796875 700 l 1
 373.922851562 700 420 653.922851562 420 597.16796875 c 2
 420 400 l 1
 270 400 l 1
 270 575 l 1
 170 575 l 1
 170 128.296875 l 1
 270 128.296875 l 1
 270 189.10546875 l 1
 270 250 l 1
 230 250 l 1
 230 350 l 1
 270 350 l 1
 420 350 l 1
 420 200 l 1
 420 0 l 1
 363.75390625 0 l 1
 335.62890625 100 l 1
 335.62890625 44.80859375 290.8203125 0 235.62890625 0 c 2
 148.296875 0 l 1
 77.48828125 0 20 57.48828125 20 128.296875 c 2
 20 600 l 2
 20 655.19140625 64.80859375 700 120 700 c 2
EndSplineSet
EndChar

StartChar: h
Encoding: 104 104 31
Width: 445
Flags: HW
LayerCount: 2
Fore
SplineSet
20 692.08984375 m 5
 170 692.08984375 l 5
 170 425 l 5
 270 425 l 5
 270 692.08984375 l 5
 420 692.08984375 l 5
 420 0 l 5
 270 0 l 5
 270 300 l 5
 170 300 l 5
 170 0 l 5
 20 0 l 5
 20 692.08984375 l 5
EndSplineSet
EndChar

StartChar: i
Encoding: 105 105 32
Width: 192
Flags: W
HStem: 0 21G<20.0505 171.999> 680 20G<20.0505 171.999>
VStem: 20.0505 151.949<0 700>
LayerCount: 2
Fore
SplineSet
20.05078125 700 m 1
 172 700 l 1
 172 0 l 1
 20.05078125 0 l 1
 20.05078125 700 l 1
EndSplineSet
EndChar

StartChar: j
Encoding: 106 106 33
Width: 311
Flags: HW
LayerCount: 2
Fore
SplineSet
129.524414062 698 m 1
 281.475585938 698 l 1
 281.475585938 698 281.474609375 152.94921875 281.475585938 152.94921875 c 1
 281.475585938 69.0859375 213.387695312 1 129.524414062 1 c 2
 29.5244140625 1 l 1
 29.5244140625 101 l 1
 129.524414062 101 l 1
 129.524414062 698 l 1
EndSplineSet
EndChar

StartChar: k
Encoding: 107 107 34
Width: 450
Flags: W
HStem: 0 21G<25 175 273.022 425> 680 20G<25 175 273.023 425>
VStem: 25 150<0 263.363 328.48 700>
LayerCount: 2
Fore
SplineSet
25 700 m 1
 175 700 l 1
 175 328.48046875 l 1
 181 349.998046875 l 1
 181 350 l 1
 206.494140625 441.419921875 l 1
 278.599609375 700 l 1
 425 700 l 1
 307.880859375 350 l 1
 425 0 l 1
 278.599609375 0 l 1
 200.51953125 280.001953125 l 1
 175 263.36328125 l 1
 175 0 l 1
 25 0 l 1
 25 700 l 1
EndSplineSet
EndChar

StartChar: l
Encoding: 108 108 35
Width: 365
Flags: HW
LayerCount: 2
Fore
SplineSet
20 0 m 1
 20 100 l 1
 20 700 l 1
 170 700 l 1
 170 100 l 1
 345 100 l 1
 345 0 l 1
 20 0 l 1
EndSplineSet
EndChar

StartChar: m
Encoding: 109 109 36
Width: 615
Flags: HW
LayerCount: 2
Fore
SplineSet
20 700 m 1
 170 700 l 1
 307.5 150 l 1
 445 700 l 1
 595 700 l 1
 595 0 l 1
 445 0 l 1
 445 425 l 1
 345 0 l 1
 270 0 l 1
 170 425 l 1
 170 0 l 1
 20 0 l 1
 20 700 l 1
EndSplineSet
EndChar

StartChar: n
Encoding: 110 110 37
Width: 480
Flags: HW
LayerCount: 2
Fore
SplineSet
40 700 m 1
 190 700 l 1
 290 300 l 1
 290 700 l 1
 440 700 l 1
 440 0 l 1
 365 0 l 1
 290 0 l 1
 190 425 l 1
 190 0 l 1
 40 0 l 1
 40 700 l 1
EndSplineSet
EndChar

StartChar: o
Encoding: 111 111 38
Width: 440
Flags: W
HStem: 0 100<170 270> 600 100<170 270>
VStem: 20 150<100 600> 270 150<100 599.638>
LayerCount: 2
Fore
SplineSet
20 600 m 2
 20 625.598632812 29.7763671875 651.216796875 49.2890625 670.73046875 c 0
 68.802734375 690.243164062 94.4013671875 700 120 700 c 2
 120 700 320.01953125 699.98046875 320 700 c 1
 345.598632812 700 371.216796875 690.223632812 390.73046875 670.7109375 c 0
 410.243164062 651.197265625 420 625.598632812 420 600 c 2
 420 600 419.98046875 99.98046875 420 100 c 1
 420 74.4013671875 410.223632812 48.783203125 390.7109375 29.26953125 c 0
 371.197265625 9.7568359375 345.598632812 0 320 0 c 2
 320 0 119.98046875 0.01953125 120 0 c 1
 94.4013671875 0 68.783203125 9.7763671875 49.26953125 29.2890625 c 0
 29.7568359375 48.802734375 20 74.4013671875 20 100 c 2
 20 600 l 2
170 600 m 1
 170 100 l 1
 270 100 l 1
 270 600 l 1
 170 600 l 1
EndSplineSet
EndChar

StartChar: p
Encoding: 112 112 39
Width: 440
Flags: W
HStem: 0 21G<20 170> 250 100<170 270> 600 100<170 270>
VStem: 20 150<0 250 350 600> 270 150<350 600>
LayerCount: 2
Fore
SplineSet
20 700 m 1
 320 700 l 2
 375 700 420 655 420 600 c 2
 420 350 l 2
 420 295 375 250 320 250 c 2
 170 250 l 1
 170 0 l 1
 20 0 l 1
 20 700 l 1
170 600 m 1
 170 350 l 1
 270 350 l 1
 270 600 l 1
 170 600 l 1
EndSplineSet
EndChar

StartChar: q
Encoding: 113 113 40
Width: 440
Flags: W
HStem: -123 100<294.256 420> 600 100<170 270>
VStem: 20 150<100 600> 270 150<100 600>
LayerCount: 2
Fore
SplineSet
120 700 m 2
 320 700 l 2
 375 700 420 655 420 600 c 2
 420 100 l 2
 420 45 375 0 320 0 c 2
 294 0 l 1
 294 -13 305 -23 317 -23 c 2
 420 -23 l 1
 420 -123 l 1
 309 -123 l 2
 245 -123 194 -72 194 -8 c 2
 194 0 l 1
 120 0 l 2
 65 0 20 45 20 100 c 2
 20 600 l 2
 20 655 65 700 120 700 c 2
170 600 m 1
 170 100 l 1
 270 100 l 1
 270 600 l 1
 170 600 l 1
EndSplineSet
EndChar

StartChar: r
Encoding: 114 114 41
Width: 440
Flags: W
HStem: 0 21G<20 170 270 420> 285 65<170 246.518> 600 100<170 269.802>
VStem: 20 150<0 285 350 600> 270 150<0 260.773 373.691 599.802>
LayerCount: 2
Fore
SplineSet
20 700 m 1
 63 700 345 700 345 700 c 1
 386 700 420 666 420 625 c 2
 420 427 l 1
 420 384 386 350 343 350 c 2
 320 350 l 1
 334 345 l 0
 384 327 420 279 420 223 c 2
 420 146 l 1
 420 0 l 1
 270 0 l 1
 270 82 l 1
 270 208 l 1
 270 248 240 281 201 285 c 2
 170 285 l 1
 170 0 l 1
 20 0 l 1
 20 700 l 1
170 600 m 1
 170 350 l 1
 212 350 l 1
 244 350 270 376 270 408 c 2
 270 575 l 1
 270 589 259 600 245 600 c 2
 170 600 l 1
EndSplineSet
EndChar

StartChar: t
Encoding: 116 116 42
Width: 390
Flags: HW
LayerCount: 2
Fore
SplineSet
20 700 m 1
 120 700 l 1
 270 700 l 1
 370 700 l 1
 370 600 l 1
 270 600 l 1
 270 0 l 1
 120 0 l 1
 120 600 l 1
 20 600 l 1
 20 700 l 1
EndSplineSet
EndChar

StartChar: u
Encoding: 117 117 43
Width: 440
Flags: HW
LayerCount: 2
Fore
SplineSet
18.193359375 700 m 1
 168.193359375 700 l 1
 168.193359375 700 168.967773438 132.750976562 168.961914062 132.7578125 c 1
 168.97265625 124.368164062 172.185546875 115.975585938 178.584960938 109.584960938 c 0
 184.984375 103.194335938 193.374023438 100 201.763671875 100 c 2
 201.763671875 100 236.254882812 100.005859375 236.248046875 100 c 1
 244.629882812 100 253.017578125 103.203125 259.40234375 109.596679688 c 0
 265.787109375 115.990234375 268.97265625 124.375976562 268.961914062 132.7578125 c 2
 268.193359375 700 l 1
 418.193359375 700 l 1
 421.806640625 0 l 1
 385.010742188 0 l 1
 343.193359375 100 l 1
 343.193359375 100 319.405273438 37.8310546875 319.5 37.896484375 c 1
 315.395507812 27.1376953125 308.009765625 17.4052734375 297.818359375 10.3857421875 c 0
 287.627929688 3.3662109375 275.99609375 0 264.481445312 0 c 2
 119.70703125 0 l 1
 119.70703125 0 118.987304688 0.0205078125 119.0078125 0 c 1
 93.3984375 0 67.767578125 9.7734375 48.2353515625 29.283203125 c 0
 28.703125 48.79296875 18.919921875 74.3916015625 18.890625 100.000976562 c 2
 18.193359375 700 l 1
EndSplineSet
EndChar

StartChar: v
Encoding: 118 118 44
Width: 500
Flags: W
HStem: 0 21G<150.5 349.5> 680 20G<7 159.862 340.138 493>
LayerCount: 2
Fore
SplineSet
493 700 m 1
 400 49 l 2
 398 36 392 24 381 14 c 0
 370 5 356 0 343 0 c 1
 157 0 l 2
 144 0 130 5 119 14 c 0
 108 24 102 36 100 49 c 1
 7 700 l 1
 157 700 l 1
 242 106 l 2
 242 104 243 103 244 102 c 0
 246 101 247 100 249 100 c 1
 251 100 l 2
 253 100 254 101 256 102 c 0
 257 103 258 105 258 106 c 1
 343 700 l 1
 493 700 l 1
EndSplineSet
EndChar

StartChar: W
Encoding: 87 87 46
Width: 858
Flags: HW
HStem: 0 21G<124 331.5 531.5 739> 0 21G<124 331.5 531.5 739> 600 100<412.594 450.406>
LayerCount: 2
Fore
SplineSet
10 700 m 1xa0
 160 700 l 1
 228 104 l 2
 229 102 230 100 233 100 c 2
 235 100 l 2
 237 100 239 102 239 104 c 2
 283 652 l 2
 286 679 308 700 335 700 c 2
 528 700 l 2
 555 700 577 679 580 652 c 2
 624 104 l 2
 624 102 626 100 628 100 c 2
 630 100 l 2
 633 100 634 102 635 104 c 2
 703 700 l 1
 853 700 l 1
 778 47 l 2
 775 20 753 0 725 0 c 2
 545 0 l 2
 518 0 494 21 494 47 c 1
 449 600 l 2
 449 602 447 600 446 600 c 2
 417 600 l 2
 416 600 414 602 414 600 c 2
 369 47 l 1
 369 21 345 0 318 0 c 2
 138 0 l 2
 110 0 88 20 85 47 c 2
 10 700 l 1xa0
EndSplineSet
EndChar
